<?xml version="1.0" standalone="no"?>
<!DOCTYPE svg PUBLIC "-//W3C//DTD SVG 20010904//EN"
 "http://www.w3.org/TR/2001/REC-SVG-20010904/DTD/svg10.dtd">
<svg version="1.0" xmlns="http://www.w3.org/2000/svg"
 width="100.000000pt" height="100.000000pt" viewBox="0 0 100.000000 100.000000"
 preserveAspectRatio="xMidYMid meet">
<metadata>
Created by potrace 1.14, written by Peter Selinger 2001-2017
</metadata>
<g transform="translate(0.000000,100.000000) scale(0.100000,-0.100000)"
fill="#000000" stroke="none">
<path d="M551 829 l-62 -62 -57 56 -57 57 -188 -188 -188 -188 190 -194 191
-195 53 53 c29 28 56 52 60 52 4 0 33 -25 65 -55 l56 -56 196 196 195 195
-196 195 -195 196 -63 -62z m247 -154 l175 -175 -180 -180 -179 -179 -52 52
-51 52 119 118 c66 65 122 122 125 127 3 4 -52 64 -123 134 l-127 125 50 51
c27 27 53 50 58 50 5 0 88 -79 185 -175z m-224 -70 c58 -58 106 -108 106 -111
0 -4 -46 -53 -103 -110 l-103 -103 -110 110 -109 109 105 105 c58 58 105 105
106 105 1 0 50 -47 108 -105z"/>
</g>
</svg>
